<svg width="12" height="11" viewBox="0 0 12 11" fill="none" xmlns="http://www.w3.org/2000/svg">
<path fill-rule="evenodd" clip-rule="evenodd" d="M0 0.876289C0 0.392328 0.447715 0 1 0H10.5C11.0523 0 11.5 0.392328 11.5 0.876289V9.20103C11.5 9.68499 11.0523 10.0773 10.5 10.0773H1C0.447715 10.0773 0 9.68499 0 9.20103V0.876289ZM6.25 9.20103H10.5V8.10567H6.25V9.20103ZM5.25 9.20103H1V0.876289H5.25V9.20103ZM6.25 7.22938H10.5V6.35309H6.25V7.22938ZM6.25 5.4768H10.5V4.60051H6.25V5.4768ZM6.25 3.72423H10.5V2.84794H6.25V3.72423ZM6.25 1.97165H10.5V0.876289H6.25V1.97165Z" fill="white"/>
</svg>
