<svg width="13" height="14" viewBox="0 0 13 14" fill="none" xmlns="http://www.w3.org/2000/svg">
<path d="M0.928571 12.9286H3.01786V10.8393H0.928571V12.9286ZM3.48214 12.9286H5.80357V10.8393H3.48214V12.9286ZM0.928571 10.375H3.01786V8.05357H0.928571V10.375ZM3.48214 10.375H5.80357V8.05357H3.48214V10.375ZM0.928571 7.58929H3.01786V5.5H0.928571V7.58929ZM6.26786 12.9286H8.58929V10.8393H6.26786V12.9286ZM3.48214 7.58929H5.80357V5.5H3.48214V7.58929ZM9.05357 12.9286H11.1429V10.8393H9.05357V12.9286ZM6.26786 10.375H8.58929V8.05357H6.26786V10.375ZM3.71429 4.10714V2.01786C3.71429 1.89453 3.60547 1.78571 3.48214 1.78571H3.01786C2.89453 1.78571 2.78571 1.89453 2.78571 2.01786V4.10714C2.78571 4.23047 2.89453 4.33929 3.01786 4.33929H3.48214C3.60547 4.33929 3.71429 4.23047 3.71429 4.10714ZM9.05357 10.375H11.1429V8.05357H9.05357V10.375ZM6.26786 7.58929H8.58929V5.5H6.26786V7.58929ZM9.05357 7.58929H11.1429V5.5H9.05357V7.58929ZM9.28571 4.10714V2.01786C9.28571 1.89453 9.1769 1.78571 9.05357 1.78571H8.58929C8.46596 1.78571 8.35714 1.89453 8.35714 2.01786V4.10714C8.35714 4.23047 8.46596 4.33929 8.58929 4.33929H9.05357C9.1769 4.33929 9.28571 4.23047 9.28571 4.10714ZM12.0714 3.64286V12.9286C12.0714 13.4364 11.6507 13.8571 11.1429 13.8571H0.928571C0.420759 13.8571 0 13.4364 0 12.9286V3.64286C0 3.13504 0.420759 2.71429 0.928571 2.71429H1.85714V2.01786C1.85714 1.37946 2.37946 0.857142 3.01786 0.857142H3.48214C4.12054 0.857142 4.64286 1.37946 4.64286 2.01786V2.71429H7.42857V2.01786C7.42857 1.37946 7.95089 0.857142 8.58929 0.857142H9.05357C9.69196 0.857142 10.2143 1.37946 10.2143 2.01786V2.71429H11.1429C11.6507 2.71429 12.0714 3.13504 12.0714 3.64286Z" fill="#666666"/>
</svg>
